<mxfile host="app.diagrams.net" modified="2024-02-26T12:17:38.018Z" agent="Mozilla/5.0 (Windows NT 10.0; Win64; x64) AppleWebKit/537.36 (KHTML, like Gecko) Chrome/120.0.0.0 Safari/537.36" version="23.1.6" etag="fT0uMCeXYV4hlzSUxf7e" type="github">
  <diagram name="PÃ¡gina-1" id="o37s3QVdvXRA1FnO48OQ">
    <mxGraphModel>
      <root>
        <mxCell id="0" />
        <mxCell id="1" parent="0" />
      </root>
    </mxGraphModel>
  </diagram>
</mxfile>
